<svg xmlns="http://www.w3.org/2000/svg" width="40" height="40" viewBox="0 0 40 40"><path fill="currentColor" fill-rule="evenodd" d="M32.93 27.276c-.682 1.508-1.01 2.183-1.886 3.517-1.224 1.864-2.947 4.182-5.088 4.203-1.9.018-2.387-1.236-4.964-1.224-2.58.014-3.117 1.246-5.014 1.228-2.138-.021-3.776-2.116-4.999-3.977-3.42-5.209-3.78-11.322-1.67-14.572 1.5-2.308 3.867-3.658 6.091-3.658 2.265 0 3.693 1.241 5.564 1.241 1.818 0 2.925-1.244 5.544-1.244 1.98 0 4.077 1.078 5.572 2.94-4.896 2.683-4.1 9.675.85 11.546zm-8.41-16.567c.954-1.223 1.676-2.944 1.414-4.709-1.556.108-3.375 1.096-4.436 2.384-.963 1.173-1.76 2.907-1.448 4.593 1.697.05 3.451-.963 4.47-2.268z"/></svg>