<svg xmlns="http://www.w3.org/2000/svg" width="40" height="40" viewBox="0 0 40 40"><path fill="currentColor" fill-rule="evenodd" d="M35.76 12.408v1.353h-5.408v5.408H29V13.76h-5.408v-1.353H29V7h1.352v5.408h5.409zM20.159 8.352h-2.58c1.712 1.353 2.622 2.775 2.622 4.822 0 1.72-.951 3.319-2.298 4.37-1.313 1.026-1.56 1.455-1.56 2.327 0 .744 1.405 2.01 2.141 2.532 2.15 1.52 2.844 2.93 2.844 5.287 0 2.94-2.844 5.862-7.996 5.862-4.519 0-8.331-1.84-8.331-4.779 0-2.984 3.478-5.863 7.996-5.863.492 0 .944-.018 1.412-.018-.619-.603-1.109-1.348-1.109-2.257 0-.539.172-1.076.413-1.537-.245.018-.496-.013-.753-.013-3.713 0-6.198-2.709-6.198-5.981C6.76 9.903 10.193 7 13.842 7h8.137l-1.821 1.352zM15.88 23.994a6.778 6.778 0 0 0-2.024-.323c-3.124-.035-5.92 1.903-5.92 4.23 0 2.376 2.255 4.353 5.377 4.353 4.392 0 5.923-1.856 5.923-4.231 0-.286-.037-.567-.1-.84-.344-1.343-1.56-2.009-3.256-3.189zm1.395-10.539c-.361-2.753-2.355-4.962-4.45-5.025-2.097-.062-3.503 2.045-3.141 4.798.362 2.752 2.354 5.035 4.45 5.098 2.096.062 3.503-2.118 3.141-4.871z"/></svg>