<svg xmlns="http://www.w3.org/2000/svg" width="40" height="40" viewBox="0 0 40 40"><path fill="currentColor" fill-rule="evenodd" d="M31.655 18.268H29.13c.183.713.292 1.46.292 2.232a8.923 8.923 0 0 1-8.923 8.923 8.923 8.923 0 0 1-8.923-8.923c0-.771.11-1.519.292-2.232H9.345v12.27c0 .616.5 1.115 1.117 1.115h20.076c.617 0 1.117-.5 1.117-1.115v-12.27zm0-7.808c0-.615-.5-1.115-1.117-1.115h-3.345c-.617 0-1.115.5-1.115 1.115v3.347c0 .617.498 1.115 1.115 1.115h3.345c.617 0 1.117-.498 1.117-1.115V10.46zM20.5 14.922a5.577 5.577 0 0 0-5.577 5.578 5.579 5.579 0 1 0 5.577-5.578zM31.655 35H9.345A3.346 3.346 0 0 1 6 31.653V9.345A3.345 3.345 0 0 1 9.345 6h22.31A3.345 3.345 0 0 1 35 9.345v22.308A3.346 3.346 0 0 1 31.655 35z"/></svg>