<svg xmlns="http://www.w3.org/2000/svg" width="40" height="40" viewBox="0 0 40 40"><path fill="currentColor" fill-rule="evenodd" d="M6.346 33.152h5.863V15.506H6.346v17.646zm2.932-20.055c2.045 0 3.316-1.354 3.316-3.048C12.56 8.32 11.323 7 9.316 7 7.31 7 6 8.319 6 10.05c0 1.693 1.272 3.047 3.239 3.047h.04zm6.178 20.055s.078-15.99 0-17.644h5.866v2.557h-.04c.772-1.203 2.16-2.972 5.325-2.972 3.857 0 6.753 2.52 6.753 7.942v10.117h-5.866v-9.44c0-2.372-.85-3.99-2.972-3.99-1.619 0-2.584 1.09-3.006 2.146-.159.376-.194.904-.194 1.431v9.853h-5.866z"/></svg>