<svg xmlns="http://www.w3.org/2000/svg" width="40" height="40" viewBox="0 0 40 40"><path fill="currentColor" fill-rule="evenodd" d="M16.994 21.776v8.103a.99.99 0 0 1-.933.983l-.507-.09-7.764-1.54A.977.977 0 0 1 7 28.27v-6.494c0-.557.44-1 .985-1h8.01c.544 0 1 .443 1 1zm14.933-1H19.535a.989.989 0 0 0-.985 1v8.803c0 .4.246.738.583.892l.012.015.39.077h.025l12.133 2.398c.027.014.052.026.079.014.052.025.102.025.155.025a.997.997 0 0 0 .999-.985V21.776c0-.557-.455-1-.999-1zm0-14.776c-.053 0-.103 0-.155.025-.027-.012-.052 0-.079.014L19.56 8.437h-.025l-.376.077s-.014 0-.026.015a1.005 1.005 0 0 0-.583.905v8.79c0 .557.44 1 .985 1h12.392c.544 0 .999-.443.999-1V6.985A.997.997 0 0 0 31.927 6zM16.061 9.138l-.507.092-7.764 1.54a.974.974 0 0 0-.79.96v6.494c0 .557.44 1 .985 1h8.01c.544 0 1-.443 1-1V10.12a.99.99 0 0 0-.934-.983z"/></svg>