<svg xmlns="http://www.w3.org/2000/svg" width="40" height="40" viewBox="0 0 40 40"><path fill="currentColor" fill-rule="evenodd" d="M35 20c0 8.284-6.716 15-15 15-1.476 0-2.902-.216-4.251-.615.57-.901 1.192-2.057 1.51-3.214.185-.666 1.055-4.122 1.055-4.122.522.994 2.045 1.869 3.665 1.869 4.823 0 8.093-4.396 8.093-10.28 0-4.448-3.768-8.593-9.496-8.593-7.127 0-10.72 5.11-10.72 9.37 0 2.58.975 4.875 3.072 5.73.343.14.651.006.75-.375.068-.263.234-.927.306-1.203.1-.377.062-.508-.215-.836-.603-.714-.989-1.636-.989-2.942 0-3.79 2.834-7.183 7.384-7.183 4.028 0 6.242 2.46 6.242 5.748 0 4.325-1.914 7.975-4.755 7.975-1.571 0-2.744-1.299-2.37-2.889.452-1.9 1.326-3.953 1.326-5.324 0-1.227-.659-2.252-2.023-2.252-1.604 0-2.893 1.66-2.893 3.883 0 1.416.479 2.373.479 2.373l-1.93 8.175c-.269 1.14-.303 2.397-.262 3.443C8.694 31.418 5 26.143 5 20c0-8.285 6.716-15 15-15 8.284 0 15 6.715 15 15"/></svg>