<svg xmlns="http://www.w3.org/2000/svg" width="40" height="40" viewBox="0 0 40 40"><path fill="currentColor" fill-rule="evenodd" d="M26.45 21.616c.076.198.112.402.112.605 0 .41-.14.806-.379 1.131-.234.32-.566.568-.957.677h.002l-.01.003-.005.002c-.182.062-.37.091-.556.091-.436 0-.865-.156-1.207-.424a1.812 1.812 0 0 1-.677-1.106h-.002v-.005l-.001-.004h.001a1.674 1.674 0 0 1-.038-.35c0-.394.133-.773.355-1.085a1.85 1.85 0 0 1 .899-.686l.003-.001a1.86 1.86 0 0 1 .639-.114c.392 0 .778.118 1.103.336a1.795 1.795 0 0 1 .719.93h-.002zm-1.2 4.833a.946.946 0 0 0-.52-.16.808.808 0 0 0-.449.136 8.735 8.735 0 0 1-4.432 1.225 7.62 7.62 0 0 1-3.361-.76l-.006-.002-.005-.002c-.158-.065-.338-.202-.533-.332a2.077 2.077 0 0 0-.32-.176.854.854 0 0 0-.722-.004l-.016.007a.84.84 0 0 0-.417.347.989.989 0 0 0-.142.518c0 .162.039.325.118.473.076.14.191.262.344.345 1.495 1.008 3.254 1.464 5.022 1.462a10.94 10.94 0 0 0 4.621-1.04l.008-.004.007-.004c.188-.111.438-.21.674-.357.117-.074.23-.16.329-.272.097-.11.176-.247.22-.41a.871.871 0 0 0-.06-.583c-.08-.17-.21-.308-.36-.407zm-10.494-2.426l.009.003c.19.07.387.104.583.104a1.98 1.98 0 0 0 1.314-.522c.357-.326.6-.785.6-1.31v-.043c.002-.024.002-.05.002-.076 0-.52-.24-.982-.594-1.309a1.957 1.957 0 0 0-1.314-.526c-.13 0-.261.015-.391.046h-.008a1.91 1.91 0 0 0-1.421 1.273v.003c-.06.18-.089.367-.089.55 0 .404.135.797.364 1.121a1.799 1.799 0 0 0 .945.686zm20.238-4.707v.003c.005.065.006.13.006.195 0 .73-.234 1.43-.624 2.025a4.073 4.073 0 0 1-1.443 1.337c.037.29.057.582.057.874a7.23 7.23 0 0 1-1.483 4.348h-.002c-1.742 2.317-4.415 3.682-7.116 4.371h-.001l-.002.002c-1.44.35-2.925.529-4.41.529-2.212 0-4.424-.4-6.487-1.227v-.002h-.003c-2.139-.881-4.178-2.283-5.428-4.337a7.062 7.062 0 0 1-1.04-3.672c0-.293.018-.586.057-.876a4.195 4.195 0 0 1-1.412-1.303A3.842 3.842 0 0 1 5 19.618v-.012c.001-1 .435-1.946 1.11-2.646.675-.698 1.598-1.153 2.586-1.153h.041a4.074 4.074 0 0 1 1.78.25l.004.001.001.002c.405.17.806.374 1.162.658.117-.06.243-.129.385-.182 2.166-1.284 4.685-1.78 7.14-1.921.02-1.216.17-2.489.763-3.603.494-.925 1.35-1.646 2.37-1.895l.005-.002.006-.001a6.09 6.09 0 0 1 1.17-.11c1.036 0 2.061.246 3.02.629a3.754 3.754 0 0 1 1.742-1.422l.007-.002.006-.003A4.4 4.4 0 0 1 29.599 8c.466 0 .936.084 1.377.281V8.28l.002.001c.004.001.005.003.008.003a3.341 3.341 0 0 1 1.546 1.253c.38.561.603 1.233.603 1.925 0 .127-.007.254-.022.383l-.001.001v.008c-.076.893-.527 1.677-1.169 2.236-.645.562-1.479.9-2.335.9-.137 0-.276-.007-.414-.026-.85-.065-1.642-.476-2.224-1.087-.584-.61-.96-1.427-.96-2.307 0-.043.003-.087.004-.129-.797-.356-1.644-.65-2.485-.649-.122 0-.244.006-.366.02h-.001c-.63.06-1.216.456-1.5 1.029v.001c-.432.84-.517 1.82-.53 2.795 2.416.157 4.846.737 6.978 1.963h.003l.031.017c.04.024.115.065.183.1.147-.117.3-.239.478-.345a3.933 3.933 0 0 1 2.177-.644c.34 0 .68.043 1.01.128l.016.004.012.002v.001a4.03 4.03 0 0 1 2.017 1.25c.531.605.888 1.37.957 2.202v.001zm-7.116-7.906c0 .033 0 .065.003.1v.005c.016.42.214.81.516 1.1.302.289.704.468 1.112.47h.098c.41.002.82-.175 1.127-.464.307-.288.51-.681.526-1.104v-.005c.003-.032.004-.063.004-.096 0-.436-.204-.852-.523-1.16-.317-.305-.745-.496-1.167-.495-.136 0-.27.018-.402.06h-.009a1.783 1.783 0 0 0-.908.591 1.57 1.57 0 0 0-.377.998zm-17.834 6.475c-.324-.15-.658-.258-.988-.256-.054 0-.11.003-.165.009h-.009l-.007.001c-.474.013-.953.22-1.31.552-.362.33-.598.775-.617 1.266v.009c-.003.04-.005.08-.005.118 0 .302.093.596.25.862.117.198.27.38.444.537.553-1.213 1.418-2.242 2.407-3.098zm21.046 5.933c0-1.081-.39-2.167-1.02-3.042-1.26-1.751-3.214-2.894-5.245-3.532l-.014-.004a16.309 16.309 0 0 0-4.802-.722c-1.634 0-3.267.243-4.83.725-2.032.645-3.991 1.779-5.247 3.536v.001a5.27 5.27 0 0 0-1.01 3.053c0 .399.05.798.155 1.187l.002.002c.229.87.676 1.65 1.254 2.329.58.679 1.29 1.258 2.036 1.732.164.102.331.2.501.295 2.168 1.21 4.666 1.74 7.145 1.74.42 0 .841-.014 1.258-.043 2.497-.206 5.003-.944 7.03-2.45a7.91 7.91 0 0 0 1.716-1.712c.475-.657.822-1.392.976-2.189l.002-.003c.063-.298.093-.6.093-.903zm1.971-4.302a1.6 1.6 0 0 0-.192-.768l-.003-.003-.001-.004a1.875 1.875 0 0 0-.786-.82 2.274 2.274 0 0 0-1.112-.285c-.353 0-.704.08-1.016.237.991.86 1.86 1.894 2.424 3.113.18-.158.334-.35.45-.565.15-.28.236-.595.236-.905z"/></svg>