<svg xmlns="http://www.w3.org/2000/svg" width="40" height="40" viewBox="0 0 40 40"><path fill="currentColor" fill-rule="evenodd" d="M11.086 17.69s.325 3.995.325 5.286c0 .582-.25 3.61-.25 3.61 0 .189-.139.42-.348.42-.208 0-.362-.239-.362-.427 0 0-.245-2.769-.245-3.598 0-1.324.323-5.3.323-5.3 0-.188.066-.321.273-.321.208 0 .25.133.284.33zm-1.947 1.699c-.165 0-.245.187-.245.255 0 0-.233 2.458-.233 3.337 0 .88.197 3.6.197 3.6 0 .19.125.425.29.425.164 0 .277-.239.277-.427 0 0 .217-2.487.203-3.603-.014-1.116-.207-3.351-.207-3.351-.012-.076-.118-.236-.282-.236zm23.663-1c-.575 0-1.123.12-1.623.332C30.845 14.868 27.67 12 23.8 12c-.947 0-1.87.19-2.685.512-.317.125-.466.252-.469.502l.002 13.418a.52.52 0 0 0 .463.504c.01.002 11.616.008 11.691.008 2.319 0 4.198-1.915 4.198-4.278 0-2.363-1.88-4.278-4.198-4.278zm-26.769.842c-.099 0-.194.035-.215.235l-.265 3.54.21 3.108c.03.21.115.386.28.386.166 0 .216-.177.268-.379l.215-3.12-.252-3.534c-.027-.196-.11-.236-.24-.236zm-1.552 1.59c-.165 0-.193.085-.22.261L4 23.006l.243 2.133c.027.188.082.292.248.292.165 0 .245-.173.263-.29l.22-2.14-.251-1.942c-.027-.15-.076-.238-.242-.238zm3.105-2.014c-.125 0-.245.06-.245.25l-.236 3.949.202 3.644c.034.208.123.381.288.381.166 0 .227-.156.276-.384L8.079 23l-.202-3.955c-.027-.195-.125-.24-.291-.24zm11.946-5.655c-.2 0-.326.187-.326.375 0 0-.314 2.175-.314 9.454 0 1.588.257 3.546.257 3.546 0 .187.194.48.394.48s.38-.284.38-.473c0 0 .262-1.935.262-3.558 0-7.69-.317-9.458-.317-9.458-.032-.197-.138-.366-.336-.366zm-6.984 2.327c-.208 0-.297.153-.297.342 0 0-.298 5.457-.298 7.16 0 1.588.277 3.632.277 3.632 0 .187.122.393.33.393.208 0 .315-.197.315-.386 0 0 .304-2.021.304-3.644 0-1.907-.322-7.166-.322-7.166-.034-.196-.101-.33-.309-.33zm5.238-.97c-.199 0-.327.207-.327.396 0 0-.313 2.406-.313 8.076 0 1.588.256 3.546.256 3.546 0 .187.195.48.394.48.2 0 .38-.284.38-.473 0 0 .263-1.935.263-3.558 0-6.329-.316-8.082-.316-8.082-.033-.196-.138-.384-.337-.384zm-1.747.998c-.199 0-.325.207-.325.395 0 0-.294 2.57-.294 7.079 0 1.588.236 3.546.236 3.546 0 .187.194.48.393.48.2 0 .38-.284.38-.473 0 0 .263-1.935.263-3.558 0-4.913-.316-7.083-.316-7.083-.033-.196-.138-.386-.337-.386zm-1.747-.804c-.199 0-.283.153-.283.341 0 0-.336 5.76-.336 7.937 0 1.588.266 3.587.266 3.587.04.223.164.438.363.438.2 0 .325-.242.357-.44 0 0 .265-1.967.265-3.59 0-2.428-.338-7.942-.338-7.942-.033-.196-.095-.331-.294-.331z"/></svg>