<svg xmlns="http://www.w3.org/2000/svg" width="40" height="40" viewBox="0 0 40 40"><path fill="currentColor" fill-rule="evenodd" d="M19.964 5C11.7 5 5 11.7 5 19.964c0 8.265 6.7 14.963 14.964 14.963 8.265 0 14.965-6.698 14.965-14.963C34.929 11.7 28.229 5 19.964 5zm-2.195 7.811c4.394 0 9.017.903 12.393 2.887.456.258.772.647.772 1.359 0 .815-.657 1.4-1.412 1.4-.305 0-.485-.073-.77-.229-2.71-1.623-6.913-2.518-10.977-2.518-2.03 0-4.091.205-5.98.719-.215.054-.49.164-.767.164-.797 0-1.41-.633-1.41-1.43 0-.814.505-1.27 1.048-1.431 2.133-.628 4.513-.921 7.103-.921zm-.305 5.14c3.916 0 7.706.977 10.684 2.76.5.287.683.648.683 1.182 0 .648-.515 1.171-1.165 1.171-.325 0-.529-.13-.75-.258-2.434-1.445-5.807-2.405-9.502-2.405-1.895 0-3.53.265-4.884.625-.293.081-.455.167-.728.167a1.17 1.17 0 0 1-1.169-1.173c0-.635.308-1.074.93-1.25 1.682-.46 3.4-.818 5.9-.818zm.205 4.888c3.274 0 6.193.75 8.704 2.256.374.217.593.441.593.994 0 .54-.439.937-.931.937-.242 0-.407-.084-.634-.222-2.169-1.313-4.872-2.002-7.742-2.002-1.601 0-3.212.205-4.72.518-.245.054-.553.148-.738.148a.935.935 0 0 1-.947-.94c0-.629.363-.941.814-1.027 1.848-.422 3.69-.662 5.601-.662z"/></svg>