<svg xmlns="http://www.w3.org/2000/svg" xmlns:xlink="http://www.w3.org/1999/xlink" style="display:none"><symbol  viewBox='0 0 40 40' id='apple'>
    <path fill="currentColor" fill-rule="evenodd" d="M32.93 27.276c-.682 1.508-1.01 2.183-1.886 3.517-1.224 1.864-2.947 4.182-5.088 4.203-1.9.018-2.387-1.236-4.964-1.224-2.58.014-3.117 1.246-5.014 1.228-2.138-.021-3.776-2.116-4.999-3.977-3.42-5.209-3.78-11.322-1.67-14.572 1.5-2.308 3.867-3.658 6.091-3.658 2.265 0 3.693 1.241 5.564 1.241 1.818 0 2.925-1.244 5.544-1.244 1.98 0 4.077 1.078 5.572 2.94-4.896 2.683-4.1 9.675.85 11.546zm-8.41-16.567c.954-1.223 1.676-2.944 1.414-4.709-1.556.108-3.375 1.096-4.436 2.384-.963 1.173-1.76 2.907-1.448 4.593 1.697.05 3.451-.963 4.47-2.268z"></path>
  </symbol><symbol  viewBox='0 0 40 40' id='facebook'>
    <path fill="currentColor" fill-rule="evenodd" d="M22.248 33.586h-5.5V20.293H14v-4.582h2.748v-2.75c0-3.736 1.553-5.961 5.96-5.961h3.67v4.582h-2.293c-1.716 0-1.83.641-1.83 1.835l-.007 2.294h4.158l-.487 4.582h-3.67v13.293"></path>
  </symbol><symbol  viewBox='0 0 40 40' id='google'>
    <path fill="currentColor" fill-rule="evenodd" d="M35.76 12.408v1.353h-5.408v5.408H29V13.76h-5.408v-1.353H29V7h1.352v5.408h5.409zM20.159 8.352h-2.58c1.712 1.353 2.622 2.775 2.622 4.822 0 1.72-.951 3.319-2.298 4.37-1.313 1.026-1.56 1.455-1.56 2.327 0 .744 1.405 2.01 2.141 2.532 2.15 1.52 2.844 2.93 2.844 5.287 0 2.94-2.844 5.862-7.996 5.862-4.519 0-8.331-1.84-8.331-4.779 0-2.984 3.478-5.863 7.996-5.863.492 0 .944-.018 1.412-.018-.619-.603-1.109-1.348-1.109-2.257 0-.539.172-1.076.413-1.537-.245.018-.496-.013-.753-.013-3.713 0-6.198-2.709-6.198-5.981C6.76 9.903 10.193 7 13.842 7h8.137l-1.821 1.352zM15.88 23.994a6.778 6.778 0 0 0-2.024-.323c-3.124-.035-5.92 1.903-5.92 4.23 0 2.376 2.255 4.353 5.377 4.353 4.392 0 5.923-1.856 5.923-4.231 0-.286-.037-.567-.1-.84-.344-1.343-1.56-2.009-3.256-3.189zm1.395-10.539c-.361-2.753-2.355-4.962-4.45-5.025-2.097-.062-3.503 2.045-3.141 4.798.362 2.752 2.354 5.035 4.45 5.098 2.096.062 3.503-2.118 3.141-4.871z"></path>
  </symbol><symbol  viewBox='0 0 40 40' id='instagram'>
    <path fill="currentColor" fill-rule="evenodd" d="M31.655 18.268H29.13c.183.713.292 1.46.292 2.232a8.923 8.923 0 0 1-8.923 8.923 8.923 8.923 0 0 1-8.923-8.923c0-.771.11-1.519.292-2.232H9.345v12.27c0 .616.5 1.115 1.117 1.115h20.076c.617 0 1.117-.5 1.117-1.115v-12.27zm0-7.808c0-.615-.5-1.115-1.117-1.115h-3.345c-.617 0-1.115.5-1.115 1.115v3.347c0 .617.498 1.115 1.115 1.115h3.345c.617 0 1.117-.498 1.117-1.115V10.46zM20.5 14.922a5.577 5.577 0 0 0-5.577 5.578 5.579 5.579 0 1 0 5.577-5.578zM31.655 35H9.345A3.346 3.346 0 0 1 6 31.653V9.345A3.345 3.345 0 0 1 9.345 6h22.31A3.345 3.345 0 0 1 35 9.345v22.308A3.346 3.346 0 0 1 31.655 35z"></path>
  </symbol><symbol  viewBox='0 0 40 40' id='linkedin'>
    <path fill="currentColor" fill-rule="evenodd" d="M6.346 33.152h5.863V15.506H6.346v17.646zm2.932-20.055c2.045 0 3.316-1.354 3.316-3.048C12.56 8.32 11.323 7 9.316 7 7.31 7 6 8.319 6 10.05c0 1.693 1.272 3.047 3.239 3.047h.04zm6.178 20.055s.078-15.99 0-17.644h5.866v2.557h-.04c.772-1.203 2.16-2.972 5.325-2.972 3.857 0 6.753 2.52 6.753 7.942v10.117h-5.866v-9.44c0-2.372-.85-3.99-2.972-3.99-1.619 0-2.584 1.09-3.006 2.146-.159.376-.194.904-.194 1.431v9.853h-5.866z"></path>
  </symbol><symbol  viewBox='0 0 40 40' id='microsoft'>
    <path fill="currentColor" fill-rule="evenodd" d="M16.994 21.776v8.103a.99.99 0 0 1-.933.983l-.507-.09-7.764-1.54A.977.977 0 0 1 7 28.27v-6.494c0-.557.44-1 .985-1h8.01c.544 0 1 .443 1 1zm14.933-1H19.535a.989.989 0 0 0-.985 1v8.803c0 .4.246.738.583.892l.012.015.39.077h.025l12.133 2.398c.027.014.052.026.079.014.052.025.102.025.155.025a.997.997 0 0 0 .999-.985V21.776c0-.557-.455-1-.999-1zm0-14.776c-.053 0-.103 0-.155.025-.027-.012-.052 0-.079.014L19.56 8.437h-.025l-.376.077s-.014 0-.026.015a1.005 1.005 0 0 0-.583.905v8.79c0 .557.44 1 .985 1h12.392c.544 0 .999-.443.999-1V6.985A.997.997 0 0 0 31.927 6zM16.061 9.138l-.507.092-7.764 1.54a.974.974 0 0 0-.79.96v6.494c0 .557.44 1 .985 1h8.01c.544 0 1-.443 1-1V10.12a.99.99 0 0 0-.934-.983z"></path>
  </symbol><symbol  viewBox='0 0 40 40' id='pinterest'>
    <path fill="currentColor" fill-rule="evenodd" d="M35 20c0 8.284-6.716 15-15 15-1.476 0-2.902-.216-4.251-.615.57-.901 1.192-2.057 1.51-3.214.185-.666 1.055-4.122 1.055-4.122.522.994 2.045 1.869 3.665 1.869 4.823 0 8.093-4.396 8.093-10.28 0-4.448-3.768-8.593-9.496-8.593-7.127 0-10.72 5.11-10.72 9.37 0 2.58.975 4.875 3.072 5.73.343.14.651.006.75-.375.068-.263.234-.927.306-1.203.1-.377.062-.508-.215-.836-.603-.714-.989-1.636-.989-2.942 0-3.79 2.834-7.183 7.384-7.183 4.028 0 6.242 2.46 6.242 5.748 0 4.325-1.914 7.975-4.755 7.975-1.571 0-2.744-1.299-2.37-2.889.452-1.9 1.326-3.953 1.326-5.324 0-1.227-.659-2.252-2.023-2.252-1.604 0-2.893 1.66-2.893 3.883 0 1.416.479 2.373.479 2.373l-1.93 8.175c-.269 1.14-.303 2.397-.262 3.443C8.694 31.418 5 26.143 5 20c0-8.285 6.716-15 15-15 8.284 0 15 6.715 15 15"></path>
  </symbol><symbol  viewBox='0 0 40 40' id='reddit'>
    <path fill="currentColor" fill-rule="evenodd" d="M26.45 21.616c.076.198.112.402.112.605 0 .41-.14.806-.379 1.131-.234.32-.566.568-.957.677h.002l-.01.003-.005.002c-.182.062-.37.091-.556.091-.436 0-.865-.156-1.207-.424a1.812 1.812 0 0 1-.677-1.106h-.002v-.005l-.001-.004h.001a1.674 1.674 0 0 1-.038-.35c0-.394.133-.773.355-1.085a1.85 1.85 0 0 1 .899-.686l.003-.001a1.86 1.86 0 0 1 .639-.114c.392 0 .778.118 1.103.336a1.795 1.795 0 0 1 .719.93h-.002zm-1.2 4.833a.946.946 0 0 0-.52-.16.808.808 0 0 0-.449.136 8.735 8.735 0 0 1-4.432 1.225 7.62 7.62 0 0 1-3.361-.76l-.006-.002-.005-.002c-.158-.065-.338-.202-.533-.332a2.077 2.077 0 0 0-.32-.176.854.854 0 0 0-.722-.004l-.016.007a.84.84 0 0 0-.417.347.989.989 0 0 0-.142.518c0 .162.039.325.118.473.076.14.191.262.344.345 1.495 1.008 3.254 1.464 5.022 1.462a10.94 10.94 0 0 0 4.621-1.04l.008-.004.007-.004c.188-.111.438-.21.674-.357.117-.074.23-.16.329-.272.097-.11.176-.247.22-.41a.871.871 0 0 0-.06-.583c-.08-.17-.21-.308-.36-.407zm-10.494-2.426l.009.003c.19.07.387.104.583.104a1.98 1.98 0 0 0 1.314-.522c.357-.326.6-.785.6-1.31v-.043c.002-.024.002-.05.002-.076 0-.52-.24-.982-.594-1.309a1.957 1.957 0 0 0-1.314-.526c-.13 0-.261.015-.391.046h-.008a1.91 1.91 0 0 0-1.421 1.273v.003c-.06.18-.089.367-.089.55 0 .404.135.797.364 1.121a1.799 1.799 0 0 0 .945.686zm20.238-4.707v.003c.005.065.006.13.006.195 0 .73-.234 1.43-.624 2.025a4.073 4.073 0 0 1-1.443 1.337c.037.29.057.582.057.874a7.23 7.23 0 0 1-1.483 4.348h-.002c-1.742 2.317-4.415 3.682-7.116 4.371h-.001l-.002.002c-1.44.35-2.925.529-4.41.529-2.212 0-4.424-.4-6.487-1.227v-.002h-.003c-2.139-.881-4.178-2.283-5.428-4.337a7.062 7.062 0 0 1-1.04-3.672c0-.293.018-.586.057-.876a4.195 4.195 0 0 1-1.412-1.303A3.842 3.842 0 0 1 5 19.618v-.012c.001-1 .435-1.946 1.11-2.646.675-.698 1.598-1.153 2.586-1.153h.041a4.074 4.074 0 0 1 1.78.25l.004.001.001.002c.405.17.806.374 1.162.658.117-.06.243-.129.385-.182 2.166-1.284 4.685-1.78 7.14-1.921.02-1.216.17-2.489.763-3.603.494-.925 1.35-1.646 2.37-1.895l.005-.002.006-.001a6.09 6.09 0 0 1 1.17-.11c1.036 0 2.061.246 3.02.629a3.754 3.754 0 0 1 1.742-1.422l.007-.002.006-.003A4.4 4.4 0 0 1 29.599 8c.466 0 .936.084 1.377.281V8.28l.002.001c.004.001.005.003.008.003a3.341 3.341 0 0 1 1.546 1.253c.38.561.603 1.233.603 1.925 0 .127-.007.254-.022.383l-.001.001v.008c-.076.893-.527 1.677-1.169 2.236-.645.562-1.479.9-2.335.9-.137 0-.276-.007-.414-.026-.85-.065-1.642-.476-2.224-1.087-.584-.61-.96-1.427-.96-2.307 0-.043.003-.087.004-.129-.797-.356-1.644-.65-2.485-.649-.122 0-.244.006-.366.02h-.001c-.63.06-1.216.456-1.5 1.029v.001c-.432.84-.517 1.82-.53 2.795 2.416.157 4.846.737 6.978 1.963h.003l.031.017c.04.024.115.065.183.1.147-.117.3-.239.478-.345a3.933 3.933 0 0 1 2.177-.644c.34 0 .68.043 1.01.128l.016.004.012.002v.001a4.03 4.03 0 0 1 2.017 1.25c.531.605.888 1.37.957 2.202v.001zm-7.116-7.906c0 .033 0 .065.003.1v.005c.016.42.214.81.516 1.1.302.289.704.468 1.112.47h.098c.41.002.82-.175 1.127-.464.307-.288.51-.681.526-1.104v-.005c.003-.032.004-.063.004-.096 0-.436-.204-.852-.523-1.16-.317-.305-.745-.496-1.167-.495-.136 0-.27.018-.402.06h-.009a1.783 1.783 0 0 0-.908.591 1.57 1.57 0 0 0-.377.998zm-17.834 6.475c-.324-.15-.658-.258-.988-.256-.054 0-.11.003-.165.009h-.009l-.007.001c-.474.013-.953.22-1.31.552-.362.33-.598.775-.617 1.266v.009c-.003.04-.005.08-.005.118 0 .302.093.596.25.862.117.198.27.38.444.537.553-1.213 1.418-2.242 2.407-3.098zm21.046 5.933c0-1.081-.39-2.167-1.02-3.042-1.26-1.751-3.214-2.894-5.245-3.532l-.014-.004a16.309 16.309 0 0 0-4.802-.722c-1.634 0-3.267.243-4.83.725-2.032.645-3.991 1.779-5.247 3.536v.001a5.27 5.27 0 0 0-1.01 3.053c0 .399.05.798.155 1.187l.002.002c.229.87.676 1.65 1.254 2.329.58.679 1.29 1.258 2.036 1.732.164.102.331.2.501.295 2.168 1.21 4.666 1.74 7.145 1.74.42 0 .841-.014 1.258-.043 2.497-.206 5.003-.944 7.03-2.45a7.91 7.91 0 0 0 1.716-1.712c.475-.657.822-1.392.976-2.189l.002-.003c.063-.298.093-.6.093-.903zm1.971-4.302a1.6 1.6 0 0 0-.192-.768l-.003-.003-.001-.004a1.875 1.875 0 0 0-.786-.82 2.274 2.274 0 0 0-1.112-.285c-.353 0-.704.08-1.016.237.991.86 1.86 1.894 2.424 3.113.18-.158.334-.35.45-.565.15-.28.236-.595.236-.905z"></path>
  </symbol><symbol  viewBox='0 0 40 40' id='rss'>
    <path fill="currentColor" fill-rule="evenodd" d="M14.19 29.391a3.583 3.583 0 0 1-3.596 3.578A3.585 3.585 0 0 1 7 29.39a3.596 3.596 0 0 1 7.19 0zM7.003 15.175v5.176c3.371 0 6.54 1.316 8.925 3.706a12.566 12.566 0 0 1 3.7 8.947h5.196c0-9.836-7.995-17.83-17.821-17.83zM7.01 6v5.178c12.018 0 21.802 9.792 21.802 21.826H34C34 18.118 21.893 6 7.01 6z"></path>
  </symbol><symbol  viewBox='0 0 40 40' id='soundcloud'>
    <path fill="currentColor" fill-rule="evenodd" d="M11.086 17.69s.325 3.995.325 5.286c0 .582-.25 3.61-.25 3.61 0 .189-.139.42-.348.42-.208 0-.362-.239-.362-.427 0 0-.245-2.769-.245-3.598 0-1.324.323-5.3.323-5.3 0-.188.066-.321.273-.321.208 0 .25.133.284.33zm-1.947 1.699c-.165 0-.245.187-.245.255 0 0-.233 2.458-.233 3.337 0 .88.197 3.6.197 3.6 0 .19.125.425.29.425.164 0 .277-.239.277-.427 0 0 .217-2.487.203-3.603-.014-1.116-.207-3.351-.207-3.351-.012-.076-.118-.236-.282-.236zm23.663-1c-.575 0-1.123.12-1.623.332C30.845 14.868 27.67 12 23.8 12c-.947 0-1.87.19-2.685.512-.317.125-.466.252-.469.502l.002 13.418a.52.52 0 0 0 .463.504c.01.002 11.616.008 11.691.008 2.319 0 4.198-1.915 4.198-4.278 0-2.363-1.88-4.278-4.198-4.278zm-26.769.842c-.099 0-.194.035-.215.235l-.265 3.54.21 3.108c.03.21.115.386.28.386.166 0 .216-.177.268-.379l.215-3.12-.252-3.534c-.027-.196-.11-.236-.24-.236zm-1.552 1.59c-.165 0-.193.085-.22.261L4 23.006l.243 2.133c.027.188.082.292.248.292.165 0 .245-.173.263-.29l.22-2.14-.251-1.942c-.027-.15-.076-.238-.242-.238zm3.105-2.014c-.125 0-.245.06-.245.25l-.236 3.949.202 3.644c.034.208.123.381.288.381.166 0 .227-.156.276-.384L8.079 23l-.202-3.955c-.027-.195-.125-.24-.291-.24zm11.946-5.655c-.2 0-.326.187-.326.375 0 0-.314 2.175-.314 9.454 0 1.588.257 3.546.257 3.546 0 .187.194.48.394.48s.38-.284.38-.473c0 0 .262-1.935.262-3.558 0-7.69-.317-9.458-.317-9.458-.032-.197-.138-.366-.336-.366zm-6.984 2.327c-.208 0-.297.153-.297.342 0 0-.298 5.457-.298 7.16 0 1.588.277 3.632.277 3.632 0 .187.122.393.33.393.208 0 .315-.197.315-.386 0 0 .304-2.021.304-3.644 0-1.907-.322-7.166-.322-7.166-.034-.196-.101-.33-.309-.33zm5.238-.97c-.199 0-.327.207-.327.396 0 0-.313 2.406-.313 8.076 0 1.588.256 3.546.256 3.546 0 .187.195.48.394.48.2 0 .38-.284.38-.473 0 0 .263-1.935.263-3.558 0-6.329-.316-8.082-.316-8.082-.033-.196-.138-.384-.337-.384zm-1.747.998c-.199 0-.325.207-.325.395 0 0-.294 2.57-.294 7.079 0 1.588.236 3.546.236 3.546 0 .187.194.48.393.48.2 0 .38-.284.38-.473 0 0 .263-1.935.263-3.558 0-4.913-.316-7.083-.316-7.083-.033-.196-.138-.386-.337-.386zm-1.747-.804c-.199 0-.283.153-.283.341 0 0-.336 5.76-.336 7.937 0 1.588.266 3.587.266 3.587.04.223.164.438.363.438.2 0 .325-.242.357-.44 0 0 .265-1.967.265-3.59 0-2.428-.338-7.942-.338-7.942-.033-.196-.095-.331-.294-.331z"></path>
  </symbol><symbol  viewBox='0 0 40 40' id='spotify'>
    <path fill="currentColor" fill-rule="evenodd" d="M19.964 5C11.7 5 5 11.7 5 19.964c0 8.265 6.7 14.963 14.964 14.963 8.265 0 14.965-6.698 14.965-14.963C34.929 11.7 28.229 5 19.964 5zm-2.195 7.811c4.394 0 9.017.903 12.393 2.887.456.258.772.647.772 1.359 0 .815-.657 1.4-1.412 1.4-.305 0-.485-.073-.77-.229-2.71-1.623-6.913-2.518-10.977-2.518-2.03 0-4.091.205-5.98.719-.215.054-.49.164-.767.164-.797 0-1.41-.633-1.41-1.43 0-.814.505-1.27 1.048-1.431 2.133-.628 4.513-.921 7.103-.921zm-.305 5.14c3.916 0 7.706.977 10.684 2.76.5.287.683.648.683 1.182 0 .648-.515 1.171-1.165 1.171-.325 0-.529-.13-.75-.258-2.434-1.445-5.807-2.405-9.502-2.405-1.895 0-3.53.265-4.884.625-.293.081-.455.167-.728.167a1.17 1.17 0 0 1-1.169-1.173c0-.635.308-1.074.93-1.25 1.682-.46 3.4-.818 5.9-.818zm.205 4.888c3.274 0 6.193.75 8.704 2.256.374.217.593.441.593.994 0 .54-.439.937-.931.937-.242 0-.407-.084-.634-.222-2.169-1.313-4.872-2.002-7.742-2.002-1.601 0-3.212.205-4.72.518-.245.054-.553.148-.738.148a.935.935 0 0 1-.947-.94c0-.629.363-.941.814-1.027 1.848-.422 3.69-.662 5.601-.662z"></path>
  </symbol><symbol  viewBox='0 0 40 40' id='tumblr'>
    <path fill="currentColor" fill-rule="evenodd" d="M26.66 28.237c-.517.248-1.506.462-2.245.481-2.228.06-2.661-1.565-2.68-2.744v-8.667h5.59v-4.214h-5.57V6h-4.077c-.067 0-.185.06-.201.208-.238 2.172-1.255 5.981-5.477 7.503v3.596h2.817v9.097c0 3.114 2.297 7.539 8.362 7.435 2.046-.035 4.318-.892 4.821-1.63l-1.34-3.972"></path>
  </symbol><symbol  viewBox='0 0 40 40' id='twitter'>
    <path fill="currentColor" fill-rule="evenodd" d="M31.93 14.07c.01.265.017.53.017.798 0 8.13-6.19 17.505-17.51 17.505A17.436 17.436 0 0 1 5 29.61c.482.056.972.085 1.47.085a12.35 12.35 0 0 0 7.643-2.634 6.158 6.158 0 0 1-5.749-4.274c.375.073.76.112 1.157.112.56 0 1.105-.076 1.621-.216a6.157 6.157 0 0 1-4.936-6.033v-.078a6.15 6.15 0 0 0 2.788.77 6.15 6.15 0 0 1-2.738-5.121c0-1.128.303-2.185.833-3.094a17.477 17.477 0 0 0 12.686 6.43 6.224 6.224 0 0 1-.159-1.404A6.154 6.154 0 0 1 25.771 8c1.77 0 3.37.748 4.492 1.944a12.329 12.329 0 0 0 3.908-1.493 6.166 6.166 0 0 1-2.706 3.403A12.265 12.265 0 0 0 35 10.886a12.512 12.512 0 0 1-3.07 3.184"></path>
  </symbol><symbol  viewBox='0 0 40 40' id='whatsapp'>
    <path fill="currentColor" fill-rule="evenodd" d="M28.976 24.235c.095.176.065.997-.313 1.942s-2.088 1.807-2.843 1.846c-.755.041-.776.59-4.886-1.21-4.109-1.799-6.581-6.175-6.776-6.458-.195-.28-1.593-2.287-1.517-4.306.076-2.018 1.173-2.971 1.565-3.367.39-.398.84-.484 1.113-.474.274.011.546.056.785.064.24.009.587-.113.898.72.31.835 1.056 2.884 1.151 3.092.095.21.154.452.008.72-.149.27-.223.437-.437.67-.214.231-.451.519-.643.696-.213.196-.436.41-.21.83.223.419.996 1.793 2.176 2.928 1.513 1.454 2.82 1.938 3.222 2.159.404.22.645.197.894-.07.25-.264 1.07-1.16 1.36-1.559.288-.4.56-.322.931-.17.37.15 2.35 1.218 2.752 1.44.404.22.673.333.77.507zm7.77-4.16c0 8.877-7.198 16.075-16.075 16.075a16.01 16.01 0 0 1-7.77-2L4 37l2.902-8.624a16.005 16.005 0 0 1-2.306-8.3C4.596 11.195 11.793 4 20.67 4c8.877 0 16.075 7.197 16.075 16.075zm-2.693 0c0-7.38-6.004-13.383-13.382-13.383-7.38 0-13.383 6.003-13.383 13.383 0 2.928.946 5.64 2.55 7.846L8.164 32.89l5.143-1.646a13.305 13.305 0 0 0 7.363 2.213c7.378 0 13.382-6.004 13.382-13.382z"></path>
  </symbol><symbol  viewBox='0 0 40 40' id='yahoo'>
    <path fill="currentColor" fill-rule="evenodd" d="M35.104 14.393c-.577.058-2.974.596-3.778.767-.863.228-8.744 6.318-9.26 7.816-.117.514-.173 1.31-.173 2.061l-.058 1.203c0 .866.238 2.254.355 3.004.515.115 4.267.014 4.954.129l-.084 1.546c-.674-.05-5.433-.037-8.154-.037-1.381 0-5.822.15-7.182.112l.256-1.471c.748-.059 3.844.133 4.526-.584.337-.357.23-.744.23-2.81v-.976c0-.463 0-1.326-.116-2.13-.288-.867-7.229-9.532-9.013-10.91-.517-.176-3.76-.498-4.567-.67L3 10.119c.403-.201 4.01.05 7.512-.083 2.3-.087 7.55 0 8.198.077l-.165 1.168c-.692.171-4.015.235-4.878.466 2.243 3.335 5.79 7.632 6.942 9.3.631-.92 6.194-4.747 6.366-6.068-.863-.173-3.721-.586-4.18-.586l-.274-1.507c.782-.123 4.902 0 6.947 0 1.768 0 5.545 0 6.616.091l-.98 1.416"></path>
  </symbol><symbol  viewBox='0 0 40 40' id='yelp'>
    <path fill="currentColor" fill-rule="evenodd" d="M8.596 19.794c.237-.37.576-.563.96-.547.25.001.472.083 5.43 2.13.003 0 1.448.587 1.448.587.522.196.84.738.807 1.357-.031.6-.377 1.068-.887 1.199-.009.004-2.06.66-2.06.66-4.612 1.483-4.766 1.525-5.01 1.51-.383-.012-.72-.239-.92-.618-.145-.274-.244-.735-.303-1.285-.175-1.674.037-4.193.535-4.993m11.09 15.236c.08-.233.091-.39.103-5.239 0 0 .01-2.142.015-2.163.031-.524-.307-1.003-.866-1.217-.572-.22-1.187-.086-1.534.347 0 0-1.01 1.2-1.013 1.2-3.476 4.079-3.62 4.269-3.705 4.51a.983.983 0 0 0-.054.445c.02.215.119.431.28.627.805.96 4.67 2.38 5.903 2.17.429-.078.737-.32.872-.68m7.833-1.686c1.163-.465 3.704-3.698 3.883-4.94.063-.433-.074-.805-.37-1.044-.196-.145-.347-.206-4.956-1.718 0 0-2.025-.666-2.048-.682-.49-.188-1.048-.013-1.425.452-.388.476-.45 1.102-.138 1.577l.815 1.324c2.737 4.446 2.944 4.76 3.143 4.914.304.239.692.279 1.096.117M25.139 21.9c5.24-1.267 5.44-1.335 5.65-1.47.315-.215.475-.572.447-1.008 0-.016.003-.028 0-.045-.135-1.286-2.388-4.632-3.5-5.176-.393-.188-.787-.175-1.112.042-.203.134-.351.333-3.156 4.17 0 0-1.269 1.725-1.285 1.743-.333.404-.338.987-.01 1.485.336.52.908.772 1.432.626 0 0-.021.037-.029.044.26-.096.722-.212 1.563-.41m-5.263-4.328c-.09-2.075-.713-11.322-.787-11.75-.106-.389-.407-.666-.845-.774-1.338-.332-6.448 1.101-7.397 2.078-.304.317-.416.707-.324 1.054.15.307 2.327 3.731 3.922 6.232l2.56 4.038c.937 1.52 1.702 1.284 1.95 1.207.248-.079 1.009-.313.921-2.085"></path>
  </symbol><symbol  viewBox='0 0 40 40' id='youtube'>
    <path fill="currentColor" fill-rule="evenodd" d="M13.036 11.885L10.94 5h1.774l1.144 4.559h.113L15.06 5h1.79l-2.051 6.672v4.735h-1.762v-4.522zm3.733-1.97c0-.65.211-1.17.632-1.557.42-.386.988-.58 1.7-.58.647 0 1.178.204 1.591.61.414.408.621.935.621 1.574v4.345c0 .723-.204 1.289-.61 1.697-.407.408-.964.614-1.675.614-.684 0-1.232-.21-1.643-.635-.41-.421-.616-.99-.616-1.705V9.915zm1.61 4.52c0 .233.055.412.17.537.11.126.268.19.475.19a.678.678 0 0 0 .507-.194c.124-.13.186-.306.186-.532V9.852a.571.571 0 0 0-.19-.447.74.74 0 0 0-.503-.167.652.652 0 0 0-.466.167.594.594 0 0 0-.18.447v4.584zm5.352 2.095c.295 0 .598-.093.91-.27a3.45 3.45 0 0 0 .9-.782v.93h1.565V7.99h-1.565v6.387a2.18 2.18 0 0 1-.485.454c-.175.118-.32.176-.436.176-.147 0-.254-.043-.317-.133-.067-.089-.098-.232-.098-.433v-6.45H22.64v7.033c0 .503.092.877.277 1.128.181.25.453.377.814.377zm-1.122 9.073a.695.695 0 0 0-.328.085c-.11.056-.22.139-.325.255v5.244c.127.137.25.236.37.297.12.06.245.09.38.09.19 0 .332-.06.419-.178.093-.118.137-.31.137-.579v-4.345c0-.285-.056-.5-.167-.645-.11-.15-.275-.224-.486-.224zm5.752.033c-.249 0-.427.074-.537.228-.106.152-.16.403-.16.76v.85h1.38v-.85c0-.357-.054-.608-.163-.76-.108-.154-.28-.228-.52-.228zm4.427 1.612a62.865 62.865 0 0 1-.173 4.831c0 2.03-1.668 3.68-3.725 3.68a201.66 201.66 0 0 1-8.997.17 201.6 201.6 0 0 1-8.998-.17c-2.054 0-3.723-1.65-3.723-3.68a59.33 59.33 0 0 1-.171-4.83 59.318 59.318 0 0 1 .171-4.83c0-2.032 1.669-3.68 3.723-3.68 2.79-.114 5.639-.173 8.543-.173h.909c2.905 0 5.754.06 8.543.173 2.057 0 3.725 1.648 3.725 3.68a62.91 62.91 0 0 1 .173 4.83zm-20.206-4.21h1.822v-1.657H8.997v1.657h1.822v9.752h1.763v-9.752zm6.27 1.336h-1.566v6.387a2.207 2.207 0 0 1-.483.454c-.177.116-.324.175-.438.175-.147 0-.252-.044-.317-.133-.067-.088-.1-.233-.1-.433v-6.45h-1.564v7.034c0 .5.093.878.275 1.13.184.248.456.373.817.373.294 0 .597-.09.91-.267.312-.18.61-.44.9-.782v.928h1.565v-8.416zm6.02 2.004c0-.687-.13-1.21-.39-1.571-.264-.358-.64-.54-1.134-.54a1.45 1.45 0 0 0-.721.203c-.235.131-.46.327-.671.584V21.38h-1.58v11.41h1.58v-.649a2.1 2.1 0 0 0 .668.57c.24.123.511.185.819.185.462 0 .817-.16 1.062-.477.245-.318.367-.776.367-1.373v-4.668zm5.784.255c0-.796-.194-1.408-.578-1.833-.383-.426-.933-.639-1.648-.639-.7 0-1.272.23-1.717.689-.442.462-.66 1.055-.66 1.783v3.78c0 .81.2 1.449.602 1.91.404.463.955.693 1.654.693.779 0 1.365-.217 1.757-.653.393-.438.59-1.088.59-1.95v-.632h-1.611v.585c0 .497-.052.815-.155.96-.102.144-.287.218-.544.218-.251 0-.424-.084-.528-.257-.106-.17-.155-.479-.155-.92v-1.588h2.993v-2.146z"></path>
  </symbol></svg>