<svg xmlns="http://www.w3.org/2000/svg" width="40" height="40" viewBox="0 0 40 40"><path fill="currentColor" fill-rule="evenodd" d="M31.93 14.07c.01.265.017.53.017.798 0 8.13-6.19 17.505-17.51 17.505A17.436 17.436 0 0 1 5 29.61c.482.056.972.085 1.47.085a12.35 12.35 0 0 0 7.643-2.634 6.158 6.158 0 0 1-5.749-4.274c.375.073.76.112 1.157.112.56 0 1.105-.076 1.621-.216a6.157 6.157 0 0 1-4.936-6.033v-.078a6.15 6.15 0 0 0 2.788.77 6.15 6.15 0 0 1-2.738-5.121c0-1.128.303-2.185.833-3.094a17.477 17.477 0 0 0 12.686 6.43 6.224 6.224 0 0 1-.159-1.404A6.154 6.154 0 0 1 25.771 8c1.77 0 3.37.748 4.492 1.944a12.329 12.329 0 0 0 3.908-1.493 6.166 6.166 0 0 1-2.706 3.403A12.265 12.265 0 0 0 35 10.886a12.512 12.512 0 0 1-3.07 3.184"/></svg>