<svg xmlns="http://www.w3.org/2000/svg" width="40" height="40" viewBox="0 0 40 40"><path fill="currentColor" fill-rule="evenodd" d="M28.976 24.235c.095.176.065.997-.313 1.942s-2.088 1.807-2.843 1.846c-.755.041-.776.59-4.886-1.21-4.109-1.799-6.581-6.175-6.776-6.458-.195-.28-1.593-2.287-1.517-4.306.076-2.018 1.173-2.971 1.565-3.367.39-.398.84-.484 1.113-.474.274.011.546.056.785.064.24.009.587-.113.898.72.31.835 1.056 2.884 1.151 3.092.095.21.154.452.008.72-.149.27-.223.437-.437.67-.214.231-.451.519-.643.696-.213.196-.436.41-.21.83.223.419.996 1.793 2.176 2.928 1.513 1.454 2.82 1.938 3.222 2.159.404.22.645.197.894-.07.25-.264 1.07-1.16 1.36-1.559.288-.4.56-.322.931-.17.37.15 2.35 1.218 2.752 1.44.404.22.673.333.77.507zm7.77-4.16c0 8.877-7.198 16.075-16.075 16.075a16.01 16.01 0 0 1-7.77-2L4 37l2.902-8.624a16.005 16.005 0 0 1-2.306-8.3C4.596 11.195 11.793 4 20.67 4c8.877 0 16.075 7.197 16.075 16.075zm-2.693 0c0-7.38-6.004-13.383-13.382-13.383-7.38 0-13.383 6.003-13.383 13.383 0 2.928.946 5.64 2.55 7.846L8.164 32.89l5.143-1.646a13.305 13.305 0 0 0 7.363 2.213c7.378 0 13.382-6.004 13.382-13.382z"/></svg>