<svg xmlns="http://www.w3.org/2000/svg" width="40" height="40" viewBox="0 0 40 40"><path fill="currentColor" fill-rule="evenodd" d="M35.104 14.393c-.577.058-2.974.596-3.778.767-.863.228-8.744 6.318-9.26 7.816-.117.514-.173 1.31-.173 2.061l-.058 1.203c0 .866.238 2.254.355 3.004.515.115 4.267.014 4.954.129l-.084 1.546c-.674-.05-5.433-.037-8.154-.037-1.381 0-5.822.15-7.182.112l.256-1.471c.748-.059 3.844.133 4.526-.584.337-.357.23-.744.23-2.81v-.976c0-.463 0-1.326-.116-2.13-.288-.867-7.229-9.532-9.013-10.91-.517-.176-3.76-.498-4.567-.67L3 10.119c.403-.201 4.01.05 7.512-.083 2.3-.087 7.55 0 8.198.077l-.165 1.168c-.692.171-4.015.235-4.878.466 2.243 3.335 5.79 7.632 6.942 9.3.631-.92 6.194-4.747 6.366-6.068-.863-.173-3.721-.586-4.18-.586l-.274-1.507c.782-.123 4.902 0 6.947 0 1.768 0 5.545 0 6.616.091l-.98 1.416"/></svg>