<svg xmlns="http://www.w3.org/2000/svg" width="40" height="40" viewBox="0 0 40 40"><path fill="currentColor" fill-rule="evenodd" d="M8.596 19.794c.237-.37.576-.563.96-.547.25.001.472.083 5.43 2.13.003 0 1.448.587 1.448.587.522.196.84.738.807 1.357-.031.6-.377 1.068-.887 1.199-.009.004-2.06.66-2.06.66-4.612 1.483-4.766 1.525-5.01 1.51-.383-.012-.72-.239-.92-.618-.145-.274-.244-.735-.303-1.285-.175-1.674.037-4.193.535-4.993m11.09 15.236c.08-.233.091-.39.103-5.239 0 0 .01-2.142.015-2.163.031-.524-.307-1.003-.866-1.217-.572-.22-1.187-.086-1.534.347 0 0-1.01 1.2-1.013 1.2-3.476 4.079-3.62 4.269-3.705 4.51a.983.983 0 0 0-.054.445c.02.215.119.431.28.627.805.96 4.67 2.38 5.903 2.17.429-.078.737-.32.872-.68m7.833-1.686c1.163-.465 3.704-3.698 3.883-4.94.063-.433-.074-.805-.37-1.044-.196-.145-.347-.206-4.956-1.718 0 0-2.025-.666-2.048-.682-.49-.188-1.048-.013-1.425.452-.388.476-.45 1.102-.138 1.577l.815 1.324c2.737 4.446 2.944 4.76 3.143 4.914.304.239.692.279 1.096.117M25.139 21.9c5.24-1.267 5.44-1.335 5.65-1.47.315-.215.475-.572.447-1.008 0-.016.003-.028 0-.045-.135-1.286-2.388-4.632-3.5-5.176-.393-.188-.787-.175-1.112.042-.203.134-.351.333-3.156 4.17 0 0-1.269 1.725-1.285 1.743-.333.404-.338.987-.01 1.485.336.52.908.772 1.432.626 0 0-.021.037-.029.044.26-.096.722-.212 1.563-.41m-5.263-4.328c-.09-2.075-.713-11.322-.787-11.75-.106-.389-.407-.666-.845-.774-1.338-.332-6.448 1.101-7.397 2.078-.304.317-.416.707-.324 1.054.15.307 2.327 3.731 3.922 6.232l2.56 4.038c.937 1.52 1.702 1.284 1.95 1.207.248-.079 1.009-.313.921-2.085"/></svg>