<svg xmlns="http://www.w3.org/2000/svg" width="40" height="40" viewBox="0 0 40 40"><path fill="currentColor" fill-rule="evenodd" d="M13.036 11.885L10.94 5h1.774l1.144 4.559h.113L15.06 5h1.79l-2.051 6.672v4.735h-1.762v-4.522zm3.733-1.97c0-.65.211-1.17.632-1.557.42-.386.988-.58 1.7-.58.647 0 1.178.204 1.591.61.414.408.621.935.621 1.574v4.345c0 .723-.204 1.289-.61 1.697-.407.408-.964.614-1.675.614-.684 0-1.232-.21-1.643-.635-.41-.421-.616-.99-.616-1.705V9.915zm1.61 4.52c0 .233.055.412.17.537.11.126.268.19.475.19a.678.678 0 0 0 .507-.194c.124-.13.186-.306.186-.532V9.852a.571.571 0 0 0-.19-.447.74.74 0 0 0-.503-.167.652.652 0 0 0-.466.167.594.594 0 0 0-.18.447v4.584zm5.352 2.095c.295 0 .598-.093.91-.27a3.45 3.45 0 0 0 .9-.782v.93h1.565V7.99h-1.565v6.387a2.18 2.18 0 0 1-.485.454c-.175.118-.32.176-.436.176-.147 0-.254-.043-.317-.133-.067-.089-.098-.232-.098-.433v-6.45H22.64v7.033c0 .503.092.877.277 1.128.181.25.453.377.814.377zm-1.122 9.073a.695.695 0 0 0-.328.085c-.11.056-.22.139-.325.255v5.244c.127.137.25.236.37.297.12.06.245.09.38.09.19 0 .332-.06.419-.178.093-.118.137-.31.137-.579v-4.345c0-.285-.056-.5-.167-.645-.11-.15-.275-.224-.486-.224zm5.752.033c-.249 0-.427.074-.537.228-.106.152-.16.403-.16.76v.85h1.38v-.85c0-.357-.054-.608-.163-.76-.108-.154-.28-.228-.52-.228zm4.427 1.612a62.865 62.865 0 0 1-.173 4.831c0 2.03-1.668 3.68-3.725 3.68a201.66 201.66 0 0 1-8.997.17 201.6 201.6 0 0 1-8.998-.17c-2.054 0-3.723-1.65-3.723-3.68a59.33 59.33 0 0 1-.171-4.83 59.318 59.318 0 0 1 .171-4.83c0-2.032 1.669-3.68 3.723-3.68 2.79-.114 5.639-.173 8.543-.173h.909c2.905 0 5.754.06 8.543.173 2.057 0 3.725 1.648 3.725 3.68a62.91 62.91 0 0 1 .173 4.83zm-20.206-4.21h1.822v-1.657H8.997v1.657h1.822v9.752h1.763v-9.752zm6.27 1.336h-1.566v6.387a2.207 2.207 0 0 1-.483.454c-.177.116-.324.175-.438.175-.147 0-.252-.044-.317-.133-.067-.088-.1-.233-.1-.433v-6.45h-1.564v7.034c0 .5.093.878.275 1.13.184.248.456.373.817.373.294 0 .597-.09.91-.267.312-.18.61-.44.9-.782v.928h1.565v-8.416zm6.02 2.004c0-.687-.13-1.21-.39-1.571-.264-.358-.64-.54-1.134-.54a1.45 1.45 0 0 0-.721.203c-.235.131-.46.327-.671.584V21.38h-1.58v11.41h1.58v-.649a2.1 2.1 0 0 0 .668.57c.24.123.511.185.819.185.462 0 .817-.16 1.062-.477.245-.318.367-.776.367-1.373v-4.668zm5.784.255c0-.796-.194-1.408-.578-1.833-.383-.426-.933-.639-1.648-.639-.7 0-1.272.23-1.717.689-.442.462-.66 1.055-.66 1.783v3.78c0 .81.2 1.449.602 1.91.404.463.955.693 1.654.693.779 0 1.365-.217 1.757-.653.393-.438.59-1.088.59-1.95v-.632h-1.611v.585c0 .497-.052.815-.155.96-.102.144-.287.218-.544.218-.251 0-.424-.084-.528-.257-.106-.17-.155-.479-.155-.92v-1.588h2.993v-2.146z"/></svg>